<svg width="40" height="40" viewBox="0 0 40 40" fill="none" xmlns="http://www.w3.org/2000/svg">
<circle cx="20" cy="20" r="20" fill="#999999"/>
<path d="M16.7036 25.6286V13.3714C16.7036 13.0096 17.1118 12.7981 17.4068 13.0059L26.1053 19.1345C26.3576 19.3126 26.3576 19.6874 26.1053 19.8655L17.4087 25.9941C17.1118 26.202 16.7036 25.9904 16.7036 25.6286Z" fill="white"/>
<path d="M16.9819 25.6286C16.9819 25.4152 16.9819 25.2 16.9819 24.9866C16.9819 24.4318 16.9819 23.8771 16.9819 23.3204C16.9819 22.556 16.9819 21.7897 16.9819 21.0252C16.9819 20.181 16.9819 19.3367 16.9819 18.4925C16.9819 17.7002 16.9819 16.9079 16.9819 16.1156C16.9819 15.507 16.9819 14.8966 16.9819 14.288C16.9819 13.993 16.98 13.6961 16.9819 13.4011C16.9819 13.3937 16.9819 13.3844 16.9819 13.377C16.9819 13.3751 16.9819 13.3732 16.9819 13.3732C16.9819 13.3658 16.9819 13.3547 16.9819 13.3491C16.9838 13.2953 16.9838 13.3436 16.98 13.3547C16.9856 13.3324 16.9912 13.312 16.9986 13.2898C16.98 13.3454 17.0079 13.2805 17.0209 13.2601C17.0153 13.2712 16.9819 13.299 17.0172 13.2675C17.0264 13.2582 17.0376 13.2471 17.0468 13.2378C17.0802 13.2025 17.0487 13.2378 17.0394 13.2434C17.0506 13.2378 17.0635 13.2285 17.0747 13.2211C17.1118 13.1951 17.0765 13.2192 17.0654 13.223C17.0858 13.2155 17.1044 13.21 17.1248 13.2044C17.1712 13.1896 17.1248 13.2044 17.1136 13.2044C17.1266 13.2044 17.1415 13.2044 17.1563 13.2025C17.2027 13.1988 17.16 13.2007 17.147 13.1988C17.1619 13.2007 17.1749 13.2044 17.1897 13.2081C17.2046 13.2118 17.2175 13.2174 17.2324 13.2211C17.1767 13.2007 17.225 13.2192 17.238 13.2285C17.2472 13.2359 17.2584 13.2415 17.2676 13.2489C17.3252 13.2879 17.3827 13.3306 17.4402 13.3695C17.815 13.633 18.188 13.8965 18.5628 14.16C19.1639 14.5849 19.767 15.0079 20.3681 15.4328C21.0528 15.9152 21.7393 16.3977 22.424 16.8819C23.0586 17.3291 23.6931 17.7763 24.3277 18.2234C24.7619 18.5296 25.1961 18.8339 25.6284 19.14C25.7286 19.2106 25.8288 19.2811 25.929 19.3516C25.9383 19.359 25.9475 19.3646 25.9568 19.372C25.9809 19.3905 25.9364 19.3479 25.9568 19.3738C25.9661 19.3868 25.9791 19.3961 25.9902 19.4072C26.018 19.4369 25.9698 19.372 25.9883 19.4072C25.9958 19.4202 26.0032 19.4351 26.0106 19.4481C26.0273 19.4759 26.0106 19.4147 26.0069 19.4443C26.005 19.4573 26.018 19.4852 26.0199 19.4982C26.018 19.4852 26.0199 19.4425 26.0162 19.4907C26.0162 19.5056 26.0162 19.5204 26.0143 19.5353C26.0143 19.4982 26.018 19.5056 26.0106 19.539C26.0088 19.5482 25.9958 19.5928 26.0069 19.5594C26.0199 19.5186 25.9921 19.5872 25.9921 19.5872C25.9883 19.5965 25.9624 19.6299 25.9958 19.5872C25.9865 19.6002 25.9735 19.6095 25.9642 19.6225C25.9401 19.6522 25.9605 19.628 25.9624 19.6262C25.7546 19.7876 25.53 19.9305 25.3148 20.0826C24.8046 20.4426 24.2925 20.8025 23.7822 21.1625C23.1179 21.6301 22.4537 22.0995 21.7894 22.5671C21.1122 23.044 20.4368 23.5208 19.7595 23.9958C19.2122 24.3817 18.6667 24.7658 18.1193 25.1518C17.8447 25.3447 17.5701 25.5396 17.2936 25.7325C17.2862 25.7381 17.2769 25.7437 17.2695 25.7492C17.2676 25.7511 17.2658 25.7511 17.2639 25.7529C17.2565 25.7566 17.1823 25.7993 17.2157 25.7845C17.2435 25.7715 17.1656 25.7956 17.1545 25.7993C17.1211 25.8105 17.2157 25.8049 17.1545 25.7975C17.1415 25.7956 17.1248 25.7956 17.1118 25.7956C17.1229 25.7956 17.1712 25.8105 17.1229 25.7956C17.1099 25.7919 17.0951 25.7882 17.0821 25.7845C17.0617 25.7789 17.0487 25.7604 17.0914 25.7882C17.0821 25.7808 17.0654 25.7733 17.0543 25.7678C17.0134 25.7492 17.0487 25.7659 17.0598 25.7752C17.0487 25.7659 17.0394 25.7566 17.0283 25.7474C17.019 25.7381 17.0097 25.727 17.0005 25.7158C17.0394 25.7548 17.0134 25.7362 17.006 25.7214C17.0005 25.7084 16.9912 25.6954 16.9856 25.6843C17.0134 25.7362 16.9912 25.6973 16.9856 25.6787C16.9838 25.6694 16.9708 25.6231 16.9782 25.6602C16.993 25.7047 16.9819 25.6323 16.9819 25.6286C16.9782 25.4839 16.8557 25.3429 16.7036 25.3503C16.5551 25.3577 16.4216 25.4728 16.4253 25.6286C16.4345 25.9719 16.672 26.2836 17.019 26.3411C17.2083 26.3727 17.3975 26.3374 17.5571 26.2279C17.6369 26.1723 17.7167 26.1166 17.7965 26.0591C18.2121 25.7659 18.6277 25.4728 19.0433 25.1815C19.6742 24.738 20.305 24.2927 20.9341 23.8492C21.6354 23.3557 22.3349 22.8621 23.0363 22.3686C23.6542 21.9325 24.272 21.4983 24.8899 21.0623C25.2796 20.7877 25.6692 20.5131 26.0589 20.2385C26.1201 20.1958 26.1832 20.1513 26.2444 20.1086C26.5042 19.9212 26.6415 19.6002 26.5394 19.2848C26.4838 19.1141 26.3743 18.9898 26.2314 18.8877C25.9735 18.704 25.7137 18.524 25.4558 18.3403C24.9103 17.9563 24.3648 17.5722 23.8193 17.1881C23.1346 16.7057 22.45 16.2232 21.7672 15.7427C21.0899 15.2658 20.4127 14.789 19.7354 14.3103C19.2159 13.9447 18.6982 13.5792 18.1787 13.2137C17.969 13.0652 17.7612 12.9112 17.5478 12.7684C17.2676 12.581 16.8984 12.6255 16.6535 12.8463C16.5013 12.9817 16.429 13.1821 16.4253 13.3825C16.4234 13.4642 16.4253 13.5458 16.4253 13.6274C16.4253 14.0746 16.4253 14.5236 16.4253 14.9708C16.4253 15.687 16.4253 16.4051 16.4253 17.1213C16.4253 17.9674 16.4253 18.8153 16.4253 19.6614C16.4253 20.5001 16.4253 21.3388 16.4253 22.1756C16.4253 22.8658 16.4253 23.5542 16.4253 24.2444C16.4253 24.6526 16.4253 25.0608 16.4253 25.469C16.4253 25.5229 16.4253 25.5785 16.4253 25.6323C16.4253 25.7771 16.5533 25.9181 16.7036 25.9107C16.8557 25.8995 16.9819 25.7845 16.9819 25.6286Z" fill="white"/>
</svg>
